<svg xmlns="http://www.w3.org/2000/svg" viewBox="0 0 53.82 19.65" role="img" aria-labelledby="title desc">
  <title id="title">IVC</title>
  <desc id="desc">Industry Value Chain 官方 IVC 圖標，深色底版本</desc>
  <polygon fill="#FFFFFF" points="31.34 13.49 22.78 0 17.58 0 30.06 19.65 31.34 19.65 35.25 19.65 35.25 0 31.34 0 31.34 13.49"/>
  <path fill="#6943E1" d="M15.64,4.48h-1.52c-.75,0-1.45-.38-1.85-1.02l-1.55-2.45c-.4-.63-1.1-1.02-1.85-1.02H0l2.2,3.46c.4.63,1.1,1.02,1.85,1.02h6.39c.75,0,1.45.38,1.85,1.02l8.28,13.13c.4.63,1.1,1.02,1.85,1.02h3.99l-8.93-14.15c-.4-.63-1.1-1.02-1.85-1.02Z"/>
  <path fill="#FFFFFF" d="M52.32,15.81h-5.24c-1.48,0-2.74-.52-3.79-1.57-1.05-1.05-1.57-2.31-1.57-3.79v-1.23c0-.97.24-1.87.72-2.7.48-.82,1.13-1.47,1.95-1.95.82-.48,1.72-.72,2.7-.72h5.23l1.5-3.85h-6.96c-2.47,0-4.59.88-6.34,2.64-1.76,1.76-2.64,3.87-2.64,6.34v1.68c0,2.47.88,4.59,2.64,6.34,1.76,1.76,3.87,2.64,6.34,2.64h6.96l-1.5-3.85Z"/>
</svg>
